Coordinates
version=1
nRows=4
nColumns=63
inDegrees=yes

Units are S.I. units (second, meters, Newtons, ...)
If the header above contains a line with 'inDegrees', this indicates whether rotational values are in degrees (yes) or radians (no).

endheader
time	pelvis_tilt	pelvis_list	pelvis_rotation	pelvis_tx	pelvis_ty	pelvis_tz	hip_flexion_r	hip_adduction_r	hip_rotation_r	knee_angle_r	knee_angle_r_beta	ankle_angle_r	subtalar_angle_r	mtp_angle_r	hip_flexion_l	hip_adduction_l	hip_rotation_l	knee_angle_l	knee_angle_l_beta	ankle_angle_l	subtalar_angle_l	mtp_angle_l	L5_S1_Flex_Ext	L5_S1_Lat_Bending	L5_S1_axial_rotation	L4_L5_Flex_Ext	L4_L5_Lat_Bending	L4_L5_axial_rotation	L3_L4_Flex_Ext	L3_L4_Lat_Bending	L3_L4_axial_rotation	L2_L3_Flex_Ext	L2_L3_Lat_Bending	L2_L3_axial_rotation	L1_L2_Flex_Ext	L1_L2_Lat_Bending	L1_L2_axial_rotation	L1_T12_Flex_Ext	L1_T12_Lat_Bending	L1_T12_axial_rotation	Abs_r3	Abs_r2	Abs_r1	Abs_t1	Abs_t2	neck_flexion	neck_bending	neck_rotation	arm_flex_r	arm_add_r	arm_rot_r	elbow_flex_r	pro_sup_r	wrist_flex_r	wrist_dev_r	arm_flex_l	arm_add_l	arm_rot_l	elbow_flex_l	pro_sup_l	wrist_flex_l	wrist_dev_l
      2.50000000	      1.13239089	     -2.84383451	     85.69887185	      0.24251706	      0.84126955	      0.71278013	     -1.16396325	      1.11453139	      8.47896871	      6.97459334	      0.12172962	     34.73782521	     -0.54820710	      0.00000000	     -2.35373054	     -3.25029077	     13.59291835	      1.03000776	      0.01797703	     36.50825930	     -4.16386818	      0.00000000	     -0.09508118	      0.78337181	      1.85890994	     -0.17657526	      1.04188451	      1.97509181	     -0.15620887	      1.90469022	      1.97509181	     -0.10866828	      1.90469022	      1.62654620	     -0.08829238	      1.59745180	      1.51036433	     -0.05432939	      1.21344294	      1.39418246	     -0.67915535	      8.86165861	     10.33869942	      0.00000000	      0.00000000	     27.53710838	    -11.16179512	     -3.85858526	      4.11936949	    -18.62655705	    108.52998316	     15.04381892	      8.22626344	     -0.02573065	      0.66182628	     15.79101748	     -2.35696302	    168.25867479	      7.32380464	      7.35790988	     -8.59965332	    -15.63547353
      2.51666667	      0.94436794	     -2.90055671	     85.46005618	      0.24303947	      0.84097576	      0.71306959	     -1.08129068	      1.02086570	     10.29177798	      6.98907363	      0.12198235	     34.29529081	     -2.80709817	      0.00000000	     -2.34289341	     -3.04673526	     16.26988322	      0.85529106	      0.01492765	     35.82770420	     -7.77957986	      0.00000000	     -0.10183124	      0.75848207	      1.95791868	     -0.18911080	      1.00878116	      2.08028860	     -0.16729855	      1.84417332	      2.08028860	     -0.11638293	      1.84417332	      1.71317885	     -0.09456049	      1.54669665	      1.59080893	     -0.05818637	      1.17488873	      1.46843901	     -0.72737039	      8.58010093	     10.88935634	      0.00000000	      0.00000000	     27.45492599	    -10.47579772	     -3.85445628	      4.26391205	    -18.26037553	    112.89642400	     14.48379278	      6.50230294	      0.36027888	     -0.24515080	     16.12413589	     -2.40397614	    166.05791514	      7.85223345	      8.07034862	     -8.08461979	    -15.92665511
      2.53333333	      0.72847063	     -2.96598014	     85.14045412	      0.24351526	      0.84065366	      0.71357584	     -0.90500223	      0.78860930	     10.37638728	      7.09705653	      0.12386700	     34.38152154	     -2.56470977	      0.00000000	     -2.25972503	     -2.82175475	     16.42430609	      0.82685785	      0.01443139	     35.75779636	     -8.28618179	      0.00000000	     -0.10503549	      0.73138911	      2.03924461	     -0.19506140	      0.97274751	      2.16669739	     -0.17256280	      1.77829948	      2.16669739	     -0.12004506	      1.77829948	      1.78433903	     -0.09753595	      1.49144867	      1.65688624	     -0.06001728	      1.13292173	      1.52943346	     -0.75025798	      8.27361986	     11.34166673	      0.00000000	      0.00000000	     27.32256653	     -9.72586916	     -3.57738978	      4.48277540	    -17.92208524	    116.86623327	     13.88619657	      6.29820799	      0.59108640	     -0.92639027	     16.19082392	     -2.41138103	    167.07582282	      7.59726353	      8.24972906	     -8.49125072	    -15.84925923
      2.55000000	      0.60900694	     -3.01118939	     84.85790179	      0.24366261	      0.84033962	      0.71429816	     -0.66627576	      0.54410772	      8.60986759	      7.33020283	      0.12793617	     34.99266682	      0.14322447	      0.00000000	     -2.12789967	     -2.69560565	     13.06287287	      0.97953215	      0.01709606	     36.66479694	     -4.20642740	      0.00000000	     -0.10648301	      0.71914173	      2.08227683	     -0.19774960	      0.95645850	      2.21241913	     -0.17494094	      1.74852121	      2.21241913	     -0.12169943	      1.74852121	      1.82199222	     -0.09888012	      1.46647382	      1.69184992	     -0.06084439	      1.11395054	      1.56170762	     -0.76059749	      8.13507511	     11.58099903	      0.00000000	      0.00000000	     27.11492920	     -9.00889644	     -3.01378571	      4.52126522	    -18.01964591	    115.79139994	     13.74483892	     10.94597889	      0.25504180	     -0.84893815	     16.41220289	     -2.62470678	    164.87948762	      7.96689062	     13.35168550	    -10.83590587	    -15.48206274
